<svg xmlns="http://www.w3.org/2000/svg" viewBox="0 0 551.034 551.034" width="40" height="40">
  <linearGradient id="instaGradient" x1="0%" y1="100%" x2="100%" y2="0%">
    <stop offset="0%" stop-color="#feda75"/>
    <stop offset="25%" stop-color="#fa7e1e"/>
    <stop offset="50%" stop-color="#d62976"/>
    <stop offset="75%" stop-color="#962fbf"/>
    <stop offset="100%" stop-color="#4f5bd5"/>
  </linearGradient>
  <path fill="url(#instaGradient)" d="M386.878,0H164.155C73.39,0,0,73.39,0,164.155v222.723
    c0,90.766,73.39,164.156,164.155,164.156h222.723
    c90.766,0,164.156-73.39,164.156-164.156V164.155
    C551.034,73.39,477.644,0,386.878,0z"/>
  <path fill="#fff" d="M275.517,133.127c-78.571,0-142.39,63.819-142.39,142.39
    s63.819,142.39,142.39,142.39
    s142.39-63.819,142.39-142.39S354.088,133.127,275.517,133.127z
    M275.517,367.162c-50.677,0-91.645-40.968-91.645-91.645
    s40.968-91.645,91.645-91.645s91.645,40.968,91.645,91.645
    S326.194,367.162,275.517,367.162z"/>
  <circle fill="#fff" cx="418.31" cy="134.07" r="34.15"/>
</svg>