<svg xmlns="http://www.w3.org/2000/svg" width="256" height="256" viewBox="0 0 256 256">
  <rect width="256" height="256" fill="none"/>
  <path fill="#25D366" d="M128,20A108,108,0,0,0,24.6,175.6L16,232l58.3-8.2A108,108,0,1,0,128,20Z"/>
  <path fill="#FFF" d="M180.4,150.6c-2.8-1.4-16.4-8.1-18.9-9s-4.4-1.4-6.3,1.4-7.2,9-8.9,10.8-3.3,2-6.1.7-11.9-4.4-22.6-14.1c-8.4-7.5-14.1-16.8-15.8-19.6s-.2-4.4,1.2-5.9c1.3-1.3,2.8-3.3,4.1-5s1.8-2.8,2.8-4.7a5.9,5.9,0,0,0-.3-5.6c-.8-1.4-6.9-16.6-9.5-22.8s-5.1-5-6.9-5.1a13.5,13.5,0,0,0-4.6,0c-1.5.3-4,1.4-6.1,4s-8,7.8-8,19a55.6,55.6,0,0,0,8.2,29.3c1.1,1.9,15.9,25,38.7,35.1s23.1,6.1,27.3,5.7,13.4-5.4,15.3-10.6A11.9,11.9,0,0,0,180.4,150.6Z"/>
</svg>